<?xml version="1.0" encoding="UTF-8" standalone="no"?>
<!DOCTYPE svg PUBLIC "-//W3C//DTD SVG 1.1//EN"
 "http://www.w3.org/Graphics/SVG/1.1/DTD/svg11.dtd">
<!-- Generated by graphviz version 2.44.1 (20200629.0846)
 -->
<!-- Title: dependencies Pages: 1 -->
<svg width="504pt" height="211pt"
 viewBox="0.00 0.00 504.00 211.00" xmlns="http://www.w3.org/2000/svg" xmlns:xlink="http://www.w3.org/1999/xlink">
<g id="graph0" class="graph" transform="scale(1 1) rotate(0) translate(4 207)">
<title>dependencies</title>
<polygon fill="white" stroke="transparent" points="-4,4 -4,-207 500,-207 500,4 -4,4"/>
<text text-anchor="start" x="227.01" y="-42.4" font-family="sans-serif" font-weight="bold" font-size="14.00">Legend</text>
<polygon fill="#ffffb3" stroke="transparent" points="14,-10 14,-30 34,-30 34,-10 14,-10"/>
<text text-anchor="start" x="37.63" y="-15.4" font-family="sans-serif" font-size="14.00"> &#160;Declarations</text>
<polygon fill="#8dd3c7" stroke="transparent" points="127,-10 127,-30 147,-30 147,-10 127,-10"/>
<text text-anchor="start" x="150.73" y="-15.4" font-family="sans-serif" font-size="14.00"> &#160;Module</text>
<polygon fill="#80b1d3" stroke="transparent" points="213,-10 213,-30 233,-30 233,-10 213,-10"/>
<text text-anchor="start" x="236.78" y="-15.4" font-family="sans-serif" font-size="14.00"> &#160;Bootstrap</text>
<polygon fill="#fdb462" stroke="transparent" points="310,-10 310,-30 330,-30 330,-10 310,-10"/>
<text text-anchor="start" x="333.67" y="-15.4" font-family="sans-serif" font-size="14.00"> &#160;Providers</text>
<polygon fill="#fb8072" stroke="transparent" points="406,-10 406,-30 426,-30 426,-10 406,-10"/>
<text text-anchor="start" x="429.73" y="-15.4" font-family="sans-serif" font-size="14.00"> &#160;Exports</text>
<g id="clust1" class="cluster">
<title>cluster_ProfileModule</title>
<polygon fill="none" stroke="black" stroke-dasharray="1,5" points="91,-70 91,-195 405,-195 405,-70 91,-70"/>
</g>
<g id="clust2" class="cluster">
<title>cluster_ProfileModule_declarations</title>
<polygon fill="none" stroke="black" points="221,-78 221,-130 397,-130 397,-78 221,-78"/>
</g>
<g id="clust4" class="cluster">
<title>cluster_ProfileModule_imports</title>
<polygon fill="none" stroke="black" points="99,-78 99,-130 213,-130 213,-78 99,-78"/>
</g>
<!-- ProfileUpdateComponent -->
<g id="node1" class="node">
<title>ProfileUpdateComponent</title>
<polygon fill="#ffffb3" stroke="black" points="388.86,-122 229.14,-122 229.14,-86 388.86,-86 388.86,-122"/>
<text text-anchor="middle" x="309" y="-99.8" font-family="Times,serif" font-size="14.00">ProfileUpdateComponent</text>
</g>
<!-- ProfileModule -->
<g id="node2" class="node">
<title>ProfileModule</title>
<polygon fill="#8dd3c7" stroke="black" points="280.65,-187 277.65,-191 256.65,-191 253.65,-187 183.35,-187 183.35,-151 280.65,-151 280.65,-187"/>
<text text-anchor="middle" x="232" y="-164.8" font-family="Times,serif" font-size="14.00">ProfileModule</text>
</g>
<!-- ProfileUpdateComponent&#45;&gt;ProfileModule -->
<g id="edge1" class="edge">
<title>ProfileUpdateComponent&#45;&gt;ProfileModule</title>
<path fill="none" stroke="black" d="M254.95,-122.11C254.95,-122.11 254.95,-140.99 254.95,-140.99"/>
<polygon fill="black" stroke="black" points="251.45,-140.99 254.95,-150.99 258.45,-140.99 251.45,-140.99"/>
</g>
<!-- SharedModule -->
<g id="node3" class="node">
<title>SharedModule</title>
<polygon fill="#8dd3c7" stroke="black" points="205.42,-122 202.42,-126 181.42,-126 178.42,-122 106.58,-122 106.58,-86 205.42,-86 205.42,-122"/>
<text text-anchor="middle" x="156" y="-99.8" font-family="Times,serif" font-size="14.00">SharedModule</text>
</g>
<!-- SharedModule&#45;&gt;ProfileModule -->
<g id="edge2" class="edge">
<title>SharedModule&#45;&gt;ProfileModule</title>
<path fill="none" stroke="black" d="M194.19,-122.11C194.19,-122.11 194.19,-140.99 194.19,-140.99"/>
<polygon fill="black" stroke="black" points="190.69,-140.99 194.19,-150.99 197.69,-140.99 190.69,-140.99"/>
</g>
</g>
</svg>
