<?xml version="1.0" encoding="UTF-8" standalone="no"?>
<!DOCTYPE svg PUBLIC "-//W3C//DTD SVG 1.1//EN"
 "http://www.w3.org/Graphics/SVG/1.1/DTD/svg11.dtd">
<!-- Generated by graphviz version 2.44.1 (20200629.0846)
 -->
<!-- Title: dependencies Pages: 1 -->
<svg width="2144pt" height="290pt"
 viewBox="0.00 0.00 2144.00 290.00" xmlns="http://www.w3.org/2000/svg" xmlns:xlink="http://www.w3.org/1999/xlink">
<g id="graph0" class="graph" transform="scale(1 1) rotate(0) translate(4 286)">
<title>dependencies</title>
<polygon fill="white" stroke="transparent" points="-4,4 -4,-286 2140,-286 2140,4 -4,4"/>
<text text-anchor="start" x="1047.01" y="-42.4" font-family="sans-serif" font-weight="bold" font-size="14.00">Legend</text>
<polygon fill="#ffffb3" stroke="transparent" points="834,-10 834,-30 854,-30 854,-10 834,-10"/>
<text text-anchor="start" x="857.63" y="-15.4" font-family="sans-serif" font-size="14.00"> &#160;Declarations</text>
<polygon fill="#8dd3c7" stroke="transparent" points="947,-10 947,-30 967,-30 967,-10 947,-10"/>
<text text-anchor="start" x="970.73" y="-15.4" font-family="sans-serif" font-size="14.00"> &#160;Module</text>
<polygon fill="#80b1d3" stroke="transparent" points="1033,-10 1033,-30 1053,-30 1053,-10 1033,-10"/>
<text text-anchor="start" x="1056.78" y="-15.4" font-family="sans-serif" font-size="14.00"> &#160;Bootstrap</text>
<polygon fill="#fdb462" stroke="transparent" points="1130,-10 1130,-30 1150,-30 1150,-10 1130,-10"/>
<text text-anchor="start" x="1153.67" y="-15.4" font-family="sans-serif" font-size="14.00"> &#160;Providers</text>
<polygon fill="#fb8072" stroke="transparent" points="1226,-10 1226,-30 1246,-30 1246,-10 1226,-10"/>
<text text-anchor="start" x="1249.73" y="-15.4" font-family="sans-serif" font-size="14.00"> &#160;Exports</text>
<g id="clust1" class="cluster">
<title>cluster_AdminModule</title>
<polygon fill="none" stroke="black" stroke-dasharray="1,5" points="8,-70 8,-198 442,-198 442,-70 8,-70"/>
</g>
<g id="clust2" class="cluster">
<title>cluster_AdminModule_declarations</title>
<polygon fill="none" stroke="black" points="16,-78 16,-130 312,-130 312,-78 16,-78"/>
</g>
<g id="clust5" class="cluster">
<title>cluster_AdminModule_imports</title>
<polygon fill="none" stroke="black" points="320,-78 320,-130 434,-130 434,-78 320,-78"/>
</g>
<g id="clust9" class="cluster">
<title>cluster_AppModule</title>
<polygon fill="none" stroke="black" stroke-dasharray="1,5" points="1043,-70 1043,-274 1928,-274 1928,-70 1043,-70"/>
</g>
<g id="clust10" class="cluster">
<title>cluster_AppModule_declarations</title>
<polygon fill="none" stroke="black" points="1527,-78 1527,-130 1920,-130 1920,-78 1527,-78"/>
</g>
<g id="clust14" class="cluster">
<title>cluster_AppModule_imports</title>
<polygon fill="none" stroke="black" points="1375,-78 1375,-130 1519,-130 1519,-78 1375,-78"/>
</g>
<g id="clust16" class="cluster">
<title>cluster_AppModule_bootstrap</title>
<polygon fill="none" stroke="black" points="1385,-214 1385,-266 1509,-266 1509,-214 1385,-214"/>
</g>
<g id="clust17" class="cluster">
<title>cluster_AppModule_providers</title>
<polygon fill="none" stroke="black" points="1051,-78 1051,-130 1367,-130 1367,-78 1051,-78"/>
</g>
<g id="clust24" class="cluster">
<title>cluster_ProfileModule</title>
<polygon fill="none" stroke="black" stroke-dasharray="1,5" points="1936,-70 1936,-198 2128,-198 2128,-70 1936,-70"/>
</g>
<g id="clust25" class="cluster">
<title>cluster_ProfileModule_declarations</title>
<polygon fill="none" stroke="black" points="1944,-78 1944,-130 2120,-130 2120,-78 1944,-78"/>
</g>
<g id="clust31" class="cluster">
<title>cluster_SharedModule</title>
<polygon fill="none" stroke="black" stroke-dasharray="1,5" points="450,-138 450,-206 1035,-206 1035,-138 450,-138"/>
</g>
<g id="clust32" class="cluster">
<title>cluster_SharedModule_declarations</title>
<polygon fill="none" stroke="black" points="750,-146 750,-198 1027,-198 1027,-146 750,-146"/>
</g>
<g id="clust36" class="cluster">
<title>cluster_SharedModule_exports</title>
<polygon fill="none" stroke="black" points="458,-146 458,-198 742,-198 742,-146 458,-146"/>
</g>
<!-- UserAddComponent -->
<g id="node1" class="node">
<title>UserAddComponent</title>
<polygon fill="#ffffb3" stroke="black" points="303.87,-122 172.13,-122 172.13,-86 303.87,-86 303.87,-122"/>
<text text-anchor="middle" x="238" y="-99.8" font-family="Times,serif" font-size="14.00">UserAddComponent</text>
</g>
<!-- AdminModule -->
<g id="node3" class="node">
<title>AdminModule</title>
<polygon fill="#8dd3c7" stroke="black" points="287.44,-190 284.44,-194 263.44,-194 260.44,-190 188.56,-190 188.56,-154 287.44,-154 287.44,-190"/>
<text text-anchor="middle" x="238" y="-167.8" font-family="Times,serif" font-size="14.00">AdminModule</text>
</g>
<!-- UserAddComponent&#45;&gt;AdminModule -->
<g id="edge1" class="edge">
<title>UserAddComponent&#45;&gt;AdminModule</title>
<path fill="none" stroke="black" d="M238,-122.22C238,-122.22 238,-143.73 238,-143.73"/>
<polygon fill="black" stroke="black" points="234.5,-143.73 238,-153.73 241.5,-143.73 234.5,-143.73"/>
</g>
<!-- UserListComponent -->
<g id="node2" class="node">
<title>UserListComponent</title>
<polygon fill="#ffffb3" stroke="black" points="153.54,-122 24.46,-122 24.46,-86 153.54,-86 153.54,-122"/>
<text text-anchor="middle" x="89" y="-99.8" font-family="Times,serif" font-size="14.00">UserListComponent</text>
</g>
<!-- UserListComponent&#45;&gt;AdminModule -->
<g id="edge2" class="edge">
<title>UserListComponent&#45;&gt;AdminModule</title>
<path fill="none" stroke="black" d="M89,-122.22C89,-142.37 89,-172 89,-172 89,-172 178.39,-172 178.39,-172"/>
<polygon fill="black" stroke="black" points="178.39,-175.5 188.39,-172 178.39,-168.5 178.39,-175.5"/>
</g>
<!-- SharedModule -->
<g id="node4" class="node">
<title>SharedModule</title>
<polygon fill="#8dd3c7" stroke="black" points="426.42,-122 423.42,-126 402.42,-126 399.42,-122 327.58,-122 327.58,-86 426.42,-86 426.42,-122"/>
<text text-anchor="middle" x="377" y="-99.8" font-family="Times,serif" font-size="14.00">SharedModule</text>
</g>
<!-- SharedModule&#45;&gt;AdminModule -->
<g id="edge3" class="edge">
<title>SharedModule&#45;&gt;AdminModule</title>
<path fill="none" stroke="black" d="M377,-122.29C377,-144.21 377,-178 377,-178 377,-178 297.4,-178 297.4,-178"/>
<polygon fill="black" stroke="black" points="297.4,-174.5 287.4,-178 297.4,-181.5 297.4,-174.5"/>
</g>
<!-- AppModule -->
<g id="node8" class="node">
<title>AppModule</title>
<polygon fill="#8dd3c7" stroke="black" points="1488.66,-190 1485.66,-194 1464.66,-194 1461.66,-190 1405.34,-190 1405.34,-154 1488.66,-154 1488.66,-190"/>
<text text-anchor="middle" x="1447" y="-167.8" font-family="Times,serif" font-size="14.00">AppModule</text>
</g>
<!-- SharedModule&#45;&gt;AppModule -->
<g id="edge8" class="edge">
<title>SharedModule&#45;&gt;AppModule</title>
<path fill="none" stroke="black" d="M426.24,-94C579.74,-94 1039.34,-94 1039.34,-94 1039.34,-94 1039.34,-181 1039.34,-181 1039.34,-181 1395.29,-181 1395.29,-181"/>
<polygon fill="black" stroke="black" points="1395.29,-184.5 1405.29,-181 1395.29,-177.5 1395.29,-184.5"/>
</g>
<!-- ProfileModule -->
<g id="node14" class="node">
<title>ProfileModule</title>
<polygon fill="#8dd3c7" stroke="black" points="2060.65,-190 2057.65,-194 2036.65,-194 2033.65,-190 1963.35,-190 1963.35,-154 2060.65,-154 2060.65,-190"/>
<text text-anchor="middle" x="2012" y="-167.8" font-family="Times,serif" font-size="14.00">ProfileModule</text>
</g>
<!-- SharedModule&#45;&gt;ProfileModule -->
<g id="edge13" class="edge">
<title>SharedModule&#45;&gt;ProfileModule</title>
<path fill="none" stroke="black" d="M352.39,-122.19C352.39,-130.28 352.39,-138 352.39,-138 352.39,-138 1995.73,-138 1995.73,-138 1995.73,-138 1995.73,-143.81 1995.73,-143.81"/>
<polygon fill="black" stroke="black" points="1992.23,-143.81 1995.73,-153.81 1999.23,-143.81 1992.23,-143.81"/>
</g>
<!-- LoaderComponent  -->
<g id="node17" class="node">
<title>LoaderComponent </title>
<polygon fill="#fb8072" stroke="black" points="734.48,-190 609.52,-190 609.52,-154 734.48,-154 734.48,-190"/>
<text text-anchor="middle" x="672" y="-167.8" font-family="Times,serif" font-size="14.00">LoaderComponent </text>
</g>
<!-- SharedModule&#45;&gt;LoaderComponent  -->
<g id="edge16" class="edge">
<title>SharedModule&#45;&gt;LoaderComponent </title>
<path fill="none" stroke="black" stroke-dasharray="5,2" d="M426.38,-115C510.36,-115 672,-115 672,-115 672,-115 672,-143.96 672,-143.96"/>
<polygon fill="black" stroke="black" points="668.5,-143.96 672,-153.96 675.5,-143.96 668.5,-143.96"/>
</g>
<!-- NavbarComponent  -->
<g id="node18" class="node">
<title>NavbarComponent </title>
<polygon fill="#fb8072" stroke="black" points="592.03,-190 465.97,-190 465.97,-154 592.03,-154 592.03,-190"/>
<text text-anchor="middle" x="529" y="-167.8" font-family="Times,serif" font-size="14.00">NavbarComponent </text>
</g>
<!-- SharedModule&#45;&gt;NavbarComponent  -->
<g id="edge17" class="edge">
<title>SharedModule&#45;&gt;NavbarComponent </title>
<path fill="none" stroke="black" stroke-dasharray="5,2" d="M401.61,-122.27C401.61,-140.56 401.61,-166 401.61,-166 401.61,-166 455.68,-166 455.68,-166"/>
<polygon fill="black" stroke="black" points="455.68,-169.5 465.68,-166 455.68,-162.5 455.68,-169.5"/>
</g>
<!-- AppComponent -->
<g id="node5" class="node">
<title>AppComponent</title>
<polygon fill="#ffffb3" stroke="black" points="1640.94,-122 1535.06,-122 1535.06,-86 1640.94,-86 1640.94,-122"/>
<text text-anchor="middle" x="1588" y="-99.8" font-family="Times,serif" font-size="14.00">AppComponent</text>
</g>
<!-- AppComponent&#45;&gt;AppModule -->
<g id="edge4" class="edge">
<title>AppComponent&#45;&gt;AppModule</title>
<path fill="none" stroke="black" d="M1588,-122.02C1588,-139.37 1588,-163 1588,-163 1588,-163 1498.92,-163 1498.92,-163"/>
<polygon fill="black" stroke="black" points="1498.92,-159.5 1488.92,-163 1498.92,-166.5 1498.92,-159.5"/>
</g>
<!-- LayoutComponent -->
<g id="node6" class="node">
<title>LayoutComponent</title>
<polygon fill="#ffffb3" stroke="black" points="1912.49,-122 1791.51,-122 1791.51,-86 1912.49,-86 1912.49,-122"/>
<text text-anchor="middle" x="1852" y="-99.8" font-family="Times,serif" font-size="14.00">LayoutComponent</text>
</g>
<!-- LayoutComponent&#45;&gt;AppModule -->
<g id="edge5" class="edge">
<title>LayoutComponent&#45;&gt;AppModule</title>
<path fill="none" stroke="black" d="M1852,-122.25C1852,-145.02 1852,-181 1852,-181 1852,-181 1498.82,-181 1498.82,-181"/>
<polygon fill="black" stroke="black" points="1498.82,-177.5 1488.82,-181 1498.82,-184.5 1498.82,-177.5"/>
</g>
<!-- LoginComponent -->
<g id="node7" class="node">
<title>LoginComponent</title>
<polygon fill="#ffffb3" stroke="black" points="1773.28,-122 1658.72,-122 1658.72,-86 1773.28,-86 1773.28,-122"/>
<text text-anchor="middle" x="1716" y="-99.8" font-family="Times,serif" font-size="14.00">LoginComponent</text>
</g>
<!-- LoginComponent&#45;&gt;AppModule -->
<g id="edge6" class="edge">
<title>LoginComponent&#45;&gt;AppModule</title>
<path fill="none" stroke="black" d="M1716,-122.22C1716,-142.37 1716,-172 1716,-172 1716,-172 1498.74,-172 1498.74,-172"/>
<polygon fill="black" stroke="black" points="1498.74,-168.5 1488.74,-172 1498.74,-175.5 1498.74,-168.5"/>
</g>
<!-- AppComponent  -->
<g id="node10" class="node">
<title>AppComponent </title>
<polygon fill="#80b1d3" stroke="black" points="1501.44,-258 1392.56,-258 1392.56,-222 1501.44,-222 1501.44,-258"/>
<text text-anchor="middle" x="1447" y="-235.8" font-family="Times,serif" font-size="14.00">AppComponent </text>
</g>
<!-- AppModule&#45;&gt;AppComponent  -->
<g id="edge9" class="edge">
<title>AppModule&#45;&gt;AppComponent </title>
<path fill="none" stroke="black" stroke-dasharray="1,5" d="M1447,-190.22C1447,-190.22 1447,-211.73 1447,-211.73"/>
<polygon fill="black" stroke="black" points="1443.5,-211.73 1447,-221.73 1450.5,-211.73 1443.5,-211.73"/>
</g>
<!-- AppRoutingModule -->
<g id="node9" class="node">
<title>AppRoutingModule</title>
<polygon fill="#8dd3c7" stroke="black" points="1511.27,-122 1508.27,-126 1487.27,-126 1484.27,-122 1382.73,-122 1382.73,-86 1511.27,-86 1511.27,-122"/>
<text text-anchor="middle" x="1447" y="-99.8" font-family="Times,serif" font-size="14.00">AppRoutingModule</text>
</g>
<!-- AppRoutingModule&#45;&gt;AppModule -->
<g id="edge7" class="edge">
<title>AppRoutingModule&#45;&gt;AppModule</title>
<path fill="none" stroke="black" d="M1447,-122.22C1447,-122.22 1447,-143.73 1447,-143.73"/>
<polygon fill="black" stroke="black" points="1443.5,-143.73 1447,-153.73 1450.5,-143.73 1443.5,-143.73"/>
</g>
<!-- ErrorInterceptor -->
<g id="node11" class="node">
<title>ErrorInterceptor</title>
<ellipse fill="#fdb462" stroke="black" cx="1285" cy="-104" rx="73.53" ry="18"/>
<text text-anchor="middle" x="1285" y="-99.8" font-family="Times,serif" font-size="14.00">ErrorInterceptor</text>
</g>
<!-- ErrorInterceptor&#45;&gt;AppModule -->
<g id="edge10" class="edge">
<title>ErrorInterceptor&#45;&gt;AppModule</title>
<path fill="none" stroke="black" d="M1285,-122.02C1285,-139.37 1285,-163 1285,-163 1285,-163 1395.28,-163 1395.28,-163"/>
<polygon fill="black" stroke="black" points="1395.28,-166.5 1405.28,-163 1395.28,-159.5 1395.28,-166.5"/>
</g>
<!-- JwtInterceptor -->
<g id="node12" class="node">
<title>JwtInterceptor</title>
<ellipse fill="#fdb462" stroke="black" cx="1126" cy="-104" rx="66.61" ry="18"/>
<text text-anchor="middle" x="1126" y="-99.8" font-family="Times,serif" font-size="14.00">JwtInterceptor</text>
</g>
<!-- JwtInterceptor&#45;&gt;AppModule -->
<g id="edge11" class="edge">
<title>JwtInterceptor&#45;&gt;AppModule</title>
<path fill="none" stroke="black" d="M1126,-122.22C1126,-142.37 1126,-172 1126,-172 1126,-172 1395.03,-172 1395.03,-172"/>
<polygon fill="black" stroke="black" points="1395.03,-175.5 1405.03,-172 1395.03,-168.5 1395.03,-175.5"/>
</g>
<!-- ProfileUpdateComponent -->
<g id="node13" class="node">
<title>ProfileUpdateComponent</title>
<polygon fill="#ffffb3" stroke="black" points="2111.86,-122 1952.14,-122 1952.14,-86 2111.86,-86 2111.86,-122"/>
<text text-anchor="middle" x="2032" y="-99.8" font-family="Times,serif" font-size="14.00">ProfileUpdateComponent</text>
</g>
<!-- ProfileUpdateComponent&#45;&gt;ProfileModule -->
<g id="edge12" class="edge">
<title>ProfileUpdateComponent&#45;&gt;ProfileModule</title>
<path fill="none" stroke="black" d="M2028.27,-122.22C2028.27,-122.22 2028.27,-143.73 2028.27,-143.73"/>
<polygon fill="black" stroke="black" points="2024.77,-143.73 2028.27,-153.73 2031.77,-143.73 2024.77,-143.73"/>
</g>
<!-- LoaderComponent -->
<g id="node15" class="node">
<title>LoaderComponent</title>
<polygon fill="#ffffb3" stroke="black" points="1019.47,-190 898.53,-190 898.53,-154 1019.47,-154 1019.47,-190"/>
<text text-anchor="middle" x="959" y="-167.8" font-family="Times,serif" font-size="14.00">LoaderComponent</text>
</g>
<!-- LoaderComponent&#45;&gt;SharedModule -->
<g id="edge14" class="edge">
<title>LoaderComponent&#45;&gt;SharedModule</title>
<path fill="none" stroke="black" d="M959,-153.72C959,-132.68 959,-101 959,-101 959,-101 436.62,-101 436.62,-101"/>
<polygon fill="black" stroke="black" points="436.62,-97.5 426.62,-101 436.62,-104.5 436.62,-97.5"/>
</g>
<!-- NavbarComponent -->
<g id="node16" class="node">
<title>NavbarComponent</title>
<polygon fill="#ffffb3" stroke="black" points="880.03,-190 757.97,-190 757.97,-154 880.03,-154 880.03,-190"/>
<text text-anchor="middle" x="819" y="-167.8" font-family="Times,serif" font-size="14.00">NavbarComponent</text>
</g>
<!-- NavbarComponent&#45;&gt;SharedModule -->
<g id="edge15" class="edge">
<title>NavbarComponent&#45;&gt;SharedModule</title>
<path fill="none" stroke="black" d="M819,-153.83C819,-134.91 819,-108 819,-108 819,-108 436.42,-108 436.42,-108"/>
<polygon fill="black" stroke="black" points="436.42,-104.5 426.42,-108 436.42,-111.5 436.42,-104.5"/>
</g>
</g>
</svg>
